<svg width="21" height="21" viewBox="0 0 21 21" fill="none" xmlns="http://www.w3.org/2000/svg">
	<path d="M7.94867 0.146764C8.06067 0.184764 8.17067 0.230764 8.27767 0.282764L9.56067 0.914764C9.73241 0.999291 9.92126 1.04325 10.1127 1.04325C10.3041 1.04325 10.4929 0.999291 10.6647 0.914764L11.9477 0.282764C12.602 -0.0390783 13.3573 -0.08788 14.0476 0.147091C14.7379 0.382061 15.3066 0.881566 15.6287 1.53576L15.7027 1.69776L15.7657 1.86476L16.2257 3.21776C16.3507 3.58576 16.6397 3.87376 17.0067 3.99876L18.3607 4.45876C18.731 4.58477 19.0703 4.78836 19.3557 5.05592C19.6411 5.32348 19.8661 5.64886 20.0158 6.01033C20.1654 6.3718 20.2362 6.76103 20.2234 7.15205C20.2107 7.54306 20.1146 7.92684 19.9417 8.27776L19.3107 9.56076C19.2261 9.7325 19.1822 9.92135 19.1822 10.1128C19.1822 10.3042 19.2261 10.493 19.3107 10.6648L19.9417 11.9478C20.1144 12.2986 20.2103 12.6823 20.223 13.0732C20.2357 13.4641 20.1649 13.8532 20.0153 14.2146C19.8656 14.5759 19.6406 14.9012 19.3553 15.1687C19.07 15.4362 18.7309 15.6397 18.3607 15.7658L17.0067 16.2258C16.8255 16.2876 16.661 16.3901 16.5258 16.5255C16.3906 16.6609 16.2882 16.8256 16.2267 17.0068L15.7657 18.3608C15.6396 18.731 15.4361 19.0701 15.1686 19.3554C14.9011 19.6407 14.5758 19.8657 14.2145 20.0154C13.8531 20.165 13.464 20.2358 13.0731 20.2231C12.6822 20.2104 12.2986 20.1145 11.9477 19.9418L10.6647 19.3108C10.4929 19.2262 10.3041 19.1823 10.1127 19.1823C9.92126 19.1823 9.73241 19.2262 9.56067 19.3108L8.27767 19.9418C7.92679 20.1145 7.5431 20.2104 7.1522 20.2231C6.76131 20.2358 6.3722 20.165 6.01086 20.0154C5.64951 19.8657 5.32424 19.6407 5.05675 19.3554C4.78926 19.0701 4.5857 18.731 4.45967 18.3608L3.99967 17.0068C3.93778 16.8255 3.83508 16.6609 3.69949 16.5257C3.56391 16.3905 3.39906 16.2882 3.21767 16.2268L1.86467 15.7658C1.49435 15.6398 1.15514 15.4364 0.869713 15.1689C0.584281 14.9015 0.359186 14.5762 0.209457 14.2149C0.0597271 13.8535 -0.0111923 13.4644 0.00143301 13.0734C0.0140584 12.6825 0.109938 12.2987 0.282671 11.9478L0.914671 10.6648C0.999198 10.493 1.04316 10.3042 1.04316 10.1128C1.04316 9.92135 0.999198 9.7325 0.914671 9.56076L0.282671 8.27776C0.109938 7.92682 0.0140584 7.54307 0.00143301 7.15212C-0.0111923 6.76117 0.0597271 6.37203 0.209457 6.01067C0.359186 5.64932 0.584281 5.32406 0.869713 5.05661C1.15514 4.78917 1.49435 4.58569 1.86467 4.45976L3.21767 3.99976C3.39909 3.93801 3.56387 3.83536 3.69929 3.69977C3.83471 3.56417 3.93715 3.39926 3.99867 3.21776L4.45867 1.86476C4.57495 1.52276 4.75748 1.20701 4.99582 0.935559C5.23417 0.66411 5.52365 0.442279 5.84775 0.282738C6.17185 0.123197 6.5242 0.0290725 6.88468 0.00574174C7.24517 -0.017589 7.60671 0.030331 7.94867 0.146764ZM13.5817 7.08176L8.16267 12.5018L6.18867 10.1318C6.12651 10.0534 6.04931 9.9883 5.96161 9.94024C5.87391 9.89217 5.77749 9.86213 5.67801 9.85188C5.57853 9.84164 5.478 9.85139 5.38235 9.88056C5.28669 9.90974 5.19784 9.95775 5.12101 10.0218C5.04418 10.0858 4.98094 10.1645 4.93499 10.2534C4.88904 10.3422 4.86132 10.4393 4.85347 10.539C4.84561 10.6387 4.85777 10.739 4.88923 10.8339C4.92069 10.9288 4.97082 11.0165 5.03667 11.0918L7.53667 14.0918C7.60333 14.1718 7.68593 14.2371 7.7792 14.2834C7.87248 14.3298 7.97438 14.3562 8.07843 14.361C8.18248 14.3658 8.28639 14.3489 8.38353 14.3113C8.48068 14.2737 8.56893 14.2163 8.64267 14.1428L14.6427 8.14276C14.7164 8.0741 14.7755 7.9913 14.8165 7.8993C14.8574 7.8073 14.8795 7.70799 14.8813 7.60729C14.883 7.50658 14.8645 7.40655 14.8268 7.31317C14.7891 7.21978 14.7329 7.13495 14.6617 7.06373C14.5905 6.99251 14.5057 6.93636 14.4123 6.89864C14.3189 6.86092 14.2189 6.8424 14.1181 6.84417C14.0174 6.84595 13.9181 6.86799 13.8261 6.90898C13.7341 6.94998 13.6513 7.00908 13.5827 7.08276L13.5817 7.08176Z" fill="#2081E2" />
</svg>
