<svg width="21" height="28" viewBox="0 0 21 28" fill="none" xmlns="http://www.w3.org/2000/svg">
	<path d="M20.9996 17.339C20.9996 23.439 15.9496 28.344 9.84964 27.98C3.58064 27.606 -0.71036 21.577 0.0976399 15.275C0.58664 11.442 2.38364 8.15496 4.33964 5.60496C4.67964 5.15996 5.02864 8.74096 5.37764 8.34696C5.72764 7.94196 8.97164 2.32796 10.0996 0.355962C10.1482 0.268982 10.2148 0.193461 10.2951 0.134531C10.3754 0.0756001 10.4674 0.0346405 10.5649 0.0144341C10.6625 -0.0057724 10.7632 -0.0047524 10.8603 0.017425C10.9574 0.0396025 11.0486 0.0824178 11.1276 0.142962C13.3936 1.85296 20.9996 8.27596 20.9996 17.339Z" fill="#FF6723" />
</svg>
