<svg width="16" height="12" viewBox="0 0 16 12" fill="none" xmlns="http://www.w3.org/2000/svg">
	<path d="M13.5535 1.00082C12.5042 0.527139 11.3941 0.190565 10.2526 0C10.1104 0.24802 9.94431 0.581608 9.82975 0.846995C8.599 0.668442 7.37956 0.668442 6.17143 0.846995C6.05693 0.581668 5.88706 0.24802 5.74356 0C4.60093 0.190653 3.48991 0.528084 2.44012 1.0033C0.351121 4.04907 -0.215192 7.0191 0.0679331 9.94709C1.4535 10.9454 2.79625 11.5518 4.11637 11.9487C4.44445 11.5134 4.73447 11.0525 4.98343 10.5709C4.50945 10.3968 4.05251 10.1822 3.61806 9.92973C3.73239 9.84797 3.84403 9.76276 3.95281 9.67423C6.58543 10.8623 9.44593 10.8623 12.0472 9.67423C12.1564 9.76217 12.268 9.84737 12.3819 9.92973C11.9467 10.1829 11.4889 10.3978 11.014 10.5721C11.2644 11.0557 11.5539 11.517 11.8811 11.9499C13.2024 11.5531 14.5464 10.9467 15.932 9.94709C16.2642 6.55284 15.3645 3.61001 13.5535 1.00076V1.00082ZM5.34212 8.14643C4.55181 8.14643 3.90368 7.43457 3.90368 6.56774C3.90368 5.7009 4.538 4.98784 5.34212 4.98784C6.14631 4.98784 6.79437 5.69964 6.78056 6.56774C6.78181 7.43457 6.14631 8.14643 5.34212 8.14643ZM10.6578 8.14643C9.86749 8.14643 9.21943 7.43457 9.21943 6.56774C9.21943 5.7009 9.85368 4.98784 10.6578 4.98784C11.462 4.98784 12.1101 5.69964 12.0962 6.56774C12.0962 7.43457 11.462 8.14643 10.6578 8.14643Z" fill="#5865F2" />
</svg>
