<svg width="49" height="51" viewBox="0 0 49 51" fill="none" xmlns="http://www.w3.org/2000/svg">
	<path d="M24.5299 25.5333C27.765 25.5333 30.8677 24.2322 33.1553 21.9161C35.443 19.6 36.7281 16.4587 36.7281 13.1833C36.7281 9.90789 35.443 6.76662 33.1553 4.45054C30.8677 2.13447 27.765 0.833313 24.5299 0.833313C21.2947 0.833313 18.192 2.13447 15.9044 4.45054C13.6168 6.76662 12.3316 9.90789 12.3316 13.1833C12.3316 16.4587 13.6168 19.6 15.9044 21.9161C18.192 24.2322 21.2947 25.5333 24.5299 25.5333ZM32.662 13.1833C32.662 15.3669 31.8053 17.4611 30.2802 19.0052C28.7551 20.5492 26.6867 21.4166 24.5299 21.4166C22.3731 21.4166 20.3046 20.5492 18.7795 19.0052C17.2545 17.4611 16.3977 15.3669 16.3977 13.1833C16.3977 10.9997 17.2545 8.90552 18.7795 7.36147C20.3046 5.81742 22.3731 4.94998 24.5299 4.94998C26.6867 4.94998 28.7551 5.81742 30.2802 7.36147C31.8053 8.90552 32.662 10.9997 32.662 13.1833ZM48.9264 46.1166C48.9264 50.2333 44.8603 50.2333 44.8603 50.2333H4.19939C4.19939 50.2333 0.133301 50.2333 0.133301 46.1166C0.133301 42 4.19939 29.65 24.5299 29.65C44.8603 29.65 48.9264 42 48.9264 46.1166ZM44.8603 46.1002C44.8563 45.0875 44.2341 42.0411 41.4773 39.25C38.8262 36.566 33.8372 33.7666 24.5299 33.7666C15.2185 33.7666 10.2335 36.566 7.58238 39.25C4.82557 42.0411 4.20753 45.0875 4.19939 46.1002H44.8603Z" fill="#545454" />
</svg>
