<svg width="50" height="51" viewBox="0 0 50 51" fill="none" xmlns="http://www.w3.org/2000/svg">
	<path d="M43.5601 0.469727C41.9799 0.469727 40.4266 1.09712 39.2347 2.30172L18.7726 22.9514L18.3182 23.4115L18.1942 24.0661L16.7689 31.3857L16.1286 34.4558L19.1589 33.8075L26.3886 32.3644L27.0351 32.239L27.4895 31.7789L47.8856 11.0623C48.7398 10.1944 49.3212 9.08996 49.5566 7.88814C49.7919 6.68632 49.6707 5.44085 49.2082 4.30865C48.7457 3.17644 47.9626 2.20815 46.9575 1.52575C45.9524 0.843344 44.7703 0.477363 43.5601 0.473909V0.469727ZM43.5601 4.52689C44.0456 4.52689 44.5186 4.77784 44.9813 5.24421C45.9026 6.17694 45.9026 7.18495 44.9813 8.11977L24.9695 28.3763L21.4166 29.0957L22.1292 25.4986L42.141 5.23793C42.6017 4.77157 43.0747 4.52061 43.5601 4.52061V4.52689ZM0.181953 8.77226V50.5987H41.4945V23.0183L37.3633 27.201V46.416H4.31321V12.9549H23.2922L27.4234 8.77226H0.181953Z" fill="#545454" />
</svg>
