<svg width="55" height="55" viewBox="0 0 55 55" fill="none" xmlns="http://www.w3.org/2000/svg">
	<path d="M24.9964 35.7208V30.2847C22.8604 30.2847 20.8118 29.4256 19.3014 27.8964C17.791 26.3672 16.9425 24.2932 16.9425 22.1306C16.9425 19.9679 17.791 17.8939 19.3014 16.3647C20.8118 14.8355 22.8604 13.9764 24.9964 13.9764V11.2583C24.9964 10.5375 25.2793 9.84611 25.7828 9.33637C26.2862 8.82664 26.9691 8.54027 27.6811 8.54027C28.3931 8.54027 29.076 8.82664 29.5795 9.33637C30.0829 9.84611 30.3658 10.5375 30.3658 11.2583V13.9764H30.4248C32.5452 13.9764 34.5788 14.8292 36.0781 16.3472C37.5774 17.8652 38.4198 19.924 38.4198 22.0708C38.4198 22.7916 38.1369 23.483 37.6334 23.9927C37.13 24.5024 36.4471 24.7888 35.7351 24.7888C35.0231 24.7888 34.3402 24.5024 33.8368 23.9927C33.3333 23.483 33.0504 22.7916 33.0504 22.0708C33.0504 21.3657 32.7738 20.6896 32.2814 20.1911C31.789 19.6926 31.1212 19.4125 30.4248 19.4125H30.3658V24.8486C32.5018 24.8486 34.5504 25.7077 36.0608 27.2369C37.5712 28.7661 38.4198 30.8402 38.4198 33.0028C38.4198 35.1654 37.5712 37.2394 36.0608 38.7686C34.5504 40.2978 32.5018 41.1569 30.3658 41.1569V43.875C30.3658 44.5959 30.0829 45.2872 29.5795 45.797C29.076 46.3067 28.3931 46.593 27.6811 46.593C26.9691 46.593 26.2862 46.3067 25.7828 45.797C25.2793 45.2872 24.9964 44.5959 24.9964 43.875V41.1569H24.8595C22.7598 41.1569 20.7461 40.3124 19.2613 38.8092C17.7766 37.306 16.9425 35.2672 16.9425 33.1414C16.9425 32.4205 17.2253 31.7292 17.7288 31.2194C18.2323 30.7097 18.9151 30.4233 19.6271 30.4233C20.3391 30.4233 21.022 30.7097 21.5255 31.2194C22.0289 31.7292 22.3118 32.4205 22.3118 33.1414C22.3125 33.8253 22.5811 34.481 23.0588 34.9645C23.5364 35.4481 24.184 35.7201 24.8595 35.7208H24.9964ZM30.3658 35.7208C31.0778 35.7208 31.7606 35.4345 32.2641 34.9247C32.7676 34.415 33.0504 33.7236 33.0504 33.0028C33.0504 32.2819 32.7676 31.5906 32.2641 31.0808C31.7606 30.5711 31.0778 30.2847 30.3658 30.2847V35.7208ZM24.9964 19.4125C24.2844 19.4125 23.6016 19.6989 23.0981 20.2086C22.5946 20.7183 22.3118 21.4097 22.3118 22.1306C22.3118 22.8514 22.5946 23.5428 23.0981 24.0525C23.6016 24.5622 24.2844 24.8486 24.9964 24.8486V19.4125ZM27.6811 54.7472C12.8537 54.7472 0.834473 42.5785 0.834473 27.5667C0.834473 12.5548 12.8537 0.386108 27.6811 0.386108C42.5085 0.386108 54.5278 12.5548 54.5278 27.5667C54.5278 42.5785 42.5085 54.7472 27.6811 54.7472ZM27.6811 49.3111C33.3773 49.3111 38.8401 47.0202 42.8679 42.9423C46.8956 38.8644 49.1584 33.3336 49.1584 27.5667C49.1584 21.7997 46.8956 16.2689 42.8679 12.191C38.8401 8.11314 33.3773 5.82222 27.6811 5.82222C21.985 5.82222 16.5221 8.11314 12.4944 12.191C8.46658 16.2689 6.2038 21.7997 6.2038 27.5667C6.2038 33.3336 8.46658 38.8644 12.4944 42.9423C16.5221 47.0202 21.985 49.3111 27.6811 49.3111Z" fill="#545454" />
</svg>
