<svg width="19" height="21" viewBox="0 0 19 21" fill="none" xmlns="http://www.w3.org/2000/svg">
	<path d="M15.75 14.75C14.9583 14.75 14.25 15.0625 13.7083 15.5521L6.28125 11.2291C6.33333 10.9896 6.375 10.75 6.375 10.5C6.375 10.25 6.33333 10.0104 6.28125 9.77081L13.625 5.48956C14.1875 6.0104 14.9271 6.33331 15.75 6.33331C17.4792 6.33331 18.875 4.93748 18.875 3.20831C18.875 1.47915 17.4792 0.083313 15.75 0.083313C14.0208 0.083313 12.625 1.47915 12.625 3.20831C12.625 3.45831 12.6667 3.6979 12.7188 3.93748L5.375 8.21873C4.8125 7.6979 4.07292 7.37498 3.25 7.37498C1.52083 7.37498 0.125 8.77081 0.125 10.5C0.125 12.2291 1.52083 13.625 3.25 13.625C4.07292 13.625 4.8125 13.3021 5.375 12.7812L12.7917 17.1146C12.7396 17.3333 12.7083 17.5625 12.7083 17.7916C12.7083 19.4687 14.0729 20.8333 15.75 20.8333C17.4271 20.8333 18.7917 19.4687 18.7917 17.7916C18.7917 16.1146 17.4271 14.75 15.75 14.75Z" fill="black" />
</svg>
