<svg width="20" height="20" viewBox="0 0 20 20" fill="none" xmlns="http://www.w3.org/2000/svg">
	<path d="M15.1447 9.30695V9.3072C15.1447 9.88417 14.7519 10.2329 14.3907 10.2329C14.0731 10.2329 13.6717 9.89374 13.6717 9.3072C13.6717 8.71061 14.0464 8.38149 14.3907 8.38149C14.7541 8.38149 15.145 8.72818 15.1447 9.30695ZM2.54967 15.0514L2.63674 14.7885L2.46008 14.5752C1.23407 13.0952 0.501047 11.2621 0.501047 9.2671C0.501047 4.45946 4.69821 0.5 10.0005 0.5C15.2956 0.5 19.5 4.57345 19.5 9.34729C19.5 14.113 15.3043 18.0743 10.0005 18.0743C8.77828 18.0743 7.60815 17.8516 6.526 17.4681L6.26826 17.3768L6.0523 17.5445C4.91241 18.4299 3.15446 19.5 0.906527 19.5C0.778247 19.5 0.622455 19.4157 0.558061 19.1828L0.552015 19.161L0.544014 19.1397C0.458067 18.9117 0.502442 18.6507 0.635929 18.4846C0.638008 18.4823 0.63981 18.4802 0.641232 18.4786C0.647213 18.4716 0.653608 18.464 0.659849 18.4565C0.672652 18.441 0.689209 18.4205 0.708925 18.3957C0.748531 18.3458 0.80308 18.2753 0.86901 18.1866C1.00084 18.0092 1.17966 17.757 1.37643 17.4488C1.76787 16.8356 2.24045 15.985 2.54967 15.0514ZM2.57889 17.2468L1.95939 18.4041L3.19184 17.9522C4.18085 17.5895 4.99689 17.0562 5.58668 16.5802C5.58687 16.5801 5.58707 16.5799 5.58727 16.5798L6.13228 16.1429L6.75957 16.3662C6.75986 16.3663 6.76015 16.3664 6.76043 16.3665C7.80277 16.7417 8.89338 16.9357 10.0005 16.9357C14.7173 16.9357 18.5856 13.571 18.5856 9.3072C18.5856 5.03961 14.6432 1.67866 9.9676 1.67866C5.29199 1.67866 1.34964 5.03961 1.34964 9.3072C1.34964 11.3442 2.2736 12.8745 3.01996 13.7846L3.01996 13.7846L3.02176 13.7868L3.65261 14.5473L3.32429 15.5312C3.32429 15.5312 3.32429 15.5312 3.32429 15.5312C3.11899 16.1464 2.85678 16.7276 2.57889 17.2468ZM4.85597 9.2671C4.85597 8.73901 5.24128 8.38149 5.61032 8.38149C5.95609 8.38149 6.32938 8.71005 6.32938 9.3072C6.32938 9.90321 5.95313 10.2329 5.61032 10.2329C5.25924 10.2329 4.85597 9.89131 4.85597 9.2671ZM9.28146 9.2671C9.28146 8.67052 9.65623 8.34139 10.0005 8.34139C10.3382 8.34139 10.7196 8.70035 10.7196 9.2671C10.7196 9.80376 10.3266 10.1527 10.0005 10.1527C9.6656 10.1527 9.28146 9.83394 9.28146 9.2671Z" fill="white" stroke="#979797" />
</svg>
