<svg width="14" height="22" viewBox="0 0 14 22" fill="none" xmlns="http://www.w3.org/2000/svg">
	<path d="M12.1343 6.8093C12.1184 5.41866 11.5703 4.08696 10.6029 3.0879C9.63532 2.08877 8.32178 1.49825 6.93227 1.43774L6.91 1.43677L6.88791 1.43975L6.79488 1.45232L6.68841 1.43934L6.67333 1.4375L11.8843 6.81244M12.1343 6.8093C12.1343 6.80939 12.1343 6.80949 12.1343 6.80959L11.8843 6.81244M12.1343 6.8093C12.1343 6.8092 12.1343 6.80911 12.1343 6.80901L11.8843 6.81244M12.1343 6.8093C12.1478 7.79921 11.8595 8.76971 11.3079 9.59167M11.8843 6.81244C11.8972 7.75411 11.6223 8.67728 11.0963 9.45844M11.3079 9.59167L11.3117 9.5852L11.0963 9.45844M11.3079 9.59167C11.3065 9.59381 11.3051 9.59594 11.3036 9.59808L11.0963 9.45844M11.3079 9.59167L11.0963 9.45844M6.78471 18.1896L6.64529 17.9071L6.5605 18.079L6.78471 18.1896ZM6.78471 18.1896L7.00889 18.0789L6.92406 17.907L6.78471 18.1896ZM11.3869 2.1815L11.387 2.18155C12.6016 3.39585 13.2946 5.03612 13.3185 6.75348L13.3185 6.75467C13.3412 7.97031 12.9992 9.16497 12.3361 10.1863L12.3281 10.1987L12.3216 10.2119L7.07979 20.8438H6.49128L1.2478 10.2119L1.24135 10.1988L1.23342 10.1865C0.571912 9.1651 0.229843 7.97022 0.25092 6.75433L0.250932 6.75343C0.274486 5.03593 0.967231 3.39541 2.1818 2.18084C3.39596 0.966675 5.03581 0.273987 6.75269 0.25H6.8167C8.53343 0.27434 10.173 0.967258 11.3869 2.1815ZM11.283 9.63399L11.2874 9.62504L11.0625 9.51581L11.278 9.64257L11.283 9.63399ZM2.28544 9.63124L2.2931 9.64426L2.50858 9.5175L2.27941 9.6174L2.28544 9.63124ZM2.26316 9.59336C2.26459 9.59549 2.26603 9.59763 2.26746 9.59976L2.47483 9.46012L2.25935 9.58688L2.26316 9.59336ZM1.43679 6.81106C1.43679 6.81118 1.43678 6.8113 1.43678 6.81142L1.68677 6.81413L1.43679 6.8107C1.43679 6.81082 1.43679 6.81094 1.43679 6.81106ZM7.82986 5.13987C7.6183 4.99841 7.38095 4.9 7.13136 4.85026C6.88178 4.80053 6.62484 4.80044 6.37522 4.85001C6.12559 4.89957 5.88818 4.99782 5.67653 5.13913C5.46487 5.28045 5.28313 5.46207 5.14167 5.67363C5.00021 5.88519 4.9018 6.12253 4.85206 6.37212C4.80233 6.62171 4.80224 6.87865 4.85181 7.12827C4.90137 7.37789 4.99962 7.61531 5.14093 7.82696C5.28225 8.03861 5.46387 8.22036 5.67543 8.36182C6.10269 8.64751 6.62594 8.75178 7.13007 8.65168C7.6342 8.55158 8.07792 8.25531 8.36362 7.82806C8.64931 7.4008 8.75358 6.87755 8.65348 6.37342C8.55338 5.86928 8.25711 5.42556 7.82986 5.13987ZM5.0216 4.14821C5.36253 3.90856 5.74794 3.73952 6.15517 3.65103C6.5624 3.56254 6.98321 3.5564 7.39285 3.63296C7.80248 3.70952 8.19267 3.86724 8.54044 4.09684C8.88822 4.32644 9.18656 4.62328 9.41791 4.96989C9.64927 5.3165 9.80896 5.70588 9.88759 6.11513C9.96622 6.52437 9.9622 6.94521 9.87577 7.35288C9.78935 7.76055 9.62225 8.14681 9.38433 8.48895C9.1464 8.83108 8.84245 9.12217 8.49035 9.34509C7.80113 9.78144 6.96861 9.931 6.17061 9.76182C5.37261 9.59264 4.67239 9.11813 4.21953 8.43965C3.76666 7.76117 3.59705 6.9325 3.74691 6.13064C3.89678 5.32879 4.35425 4.61732 5.0216 4.14821Z" fill="white" stroke="black" stroke-width="0.5" />
</svg>
