<svg width="23" height="23" viewBox="0 0 23 23" fill="none" xmlns="http://www.w3.org/2000/svg">
	<path d="M21.9087 1.00024L0.896703 7.28462C0.811374 7.31025 0.738401 7.36608 0.689729 7.44089C0.578435 7.6133 0.626183 7.8452 0.800198 7.9582L7.93006 12.5828C8.0374 12.6523 8.17304 12.663 8.28908 12.6085L11.6239 11.1004L9.92005 14.337C9.86024 14.4513 9.86118 14.5856 9.92587 14.6954L14.1187 22.1017C14.1628 22.1793 14.2323 22.2394 14.3143 22.2684C14.5078 22.3406 14.723 22.2409 14.7968 22.0458L22.3698 1.48995C22.3986 1.41455 22.3995 1.33001 22.3786 1.25312C22.3166 1.05395 22.1078 0.94156 21.9087 1.00024ZM14.1911 18.8077L11.7459 14.4914L15.1552 8.01973C15.1816 7.96912 15.1851 7.90788 15.1602 7.85407C15.1166 7.75991 15.0068 7.71848 14.911 7.76037L8.24795 10.7768L4.10243 8.08725L19.8777 3.3699L14.1911 18.8077Z" fill="#31C837" />
</svg>
